# xmcd
#
# Track frame offsets:
#	150
#	12615
#	24516
#	42078
#
# Disc length: 676 seconds
#
# Revision: 0
# Processed by: cddbd v1.5.2PL0 Copyright (c) Steve Scherf et al.
# Submitted via: EasyCDDAExtractor 16.0.8.1
#
DISCID=2802a204
DTITLE=Geezers - Wham-Bam
DYEAR=20141
DGENRE=Rock and Roll
TTITLE0=My Heart Beat Like a Hammer
TTITLE1=In Your Eyes
TTITLE2=Wham-Bam
TTITLE3=How Long
EXTD=
EXTT0=
EXTT1=
EXTT2=
EXTT3=
PLAYORDER=
